<?xml version="1.0" encoding="utf-8"?>
<!-- Generator: $$$/GeneralStr/196=Adobe Illustrator 27.6.0, SVG Export Plug-In . SVG Version: 6.00 Build 0)  -->
<svg version="1.1" id="Calque_2_00000090264594445996946580000004435487472852259483_"
	 xmlns="http://www.w3.org/2000/svg" xmlns:xlink="http://www.w3.org/1999/xlink" x="0px" y="0px" viewBox="0 0 112.5 112.5"
	 style="enable-background:new 0 0 112.5 112.5;" xml:space="preserve">
<style type="text/css">
	.st0{fill:#FFFFFF;}
</style>
<g>
	<path class="st0" d="M56.2,0c-1,0-1.2,7.5-2.2,7.6C24.4,9.1,0,28.1,0,58.2c0,27.5,25.2,54.3,56.2,54.3s56.2-25.2,56.2-56.2
		S87.3,0,56.2,0z M26.5,71.7h-6.8c0,0,0-30.5,0-30.5h6.8V71.7z M45.5,71.7H33.3V41.1h10.8c11.1,0,15.9,5.6,15.9,15
		C60,67.7,52.6,71.7,45.5,71.7z M94.7,71.7h-7.9L72.2,49h-0.5l0.4,22.6h-6.5c0,0,0-30.5,0-30.5h8.7l13.8,21.6h0.5l-0.4-21.6h6.5
		V71.7z"/>
	<path class="st0" d="M44.3,46.5H40h0v19.7h5.4c5.2,0,7.8-3.5,7.8-9.8C53.1,49.6,50.3,46.5,44.3,46.5z"/>
</g>
</svg>
