<?xml version="1.0" encoding="utf-8"?>
<!-- Generator: $$$/GeneralStr/196=Adobe Illustrator 27.6.0, SVG Export Plug-In . SVG Version: 6.00 Build 0)  -->
<svg version="1.1" id="Calque_2_00000041262974306086908310000015884456621709003394_"
	 xmlns="http://www.w3.org/2000/svg" xmlns:xlink="http://www.w3.org/1999/xlink" x="0px" y="0px" viewBox="0 0 749.5 205.7"
	 style="enable-background:new 0 0 749.5 205.7;" xml:space="preserve">
<style type="text/css">
	.st0{fill:#00FFB3;}
</style>
<g id="Calque_1-2">
	<path class="st0" d="M101.7,205.7C45.5,205.7,0,157.2,0,107.5C0,53.2,44.1,18.8,97.8,16c1.8-0.1,2.1-13.7,3.9-13.7
		c56.2,0,101.7,45.5,101.7,101.7S157.8,205.7,101.7,205.7z"/>
	<path d="M35.7,76.7H48v55.2H35.7C35.7,131.9,35.7,76.7,35.7,76.7z"/>
	<path d="M60.2,76.7h19.6c20.1,0,28.8,10.2,28.8,27.1c0,21-13.5,28.1-26.2,28.1H60.2C60.2,131.9,60.2,76.7,60.2,76.7z M72.2,86.4
		v35.7H82c9.4,0,14.1-6.3,14.1-17.7c0-12.5-5.1-18-15.9-18C80.2,86.4,72.2,86.4,72.2,86.4z"/>
	<path d="M118.6,76.7h15.7l25,39.1h0.9l-0.8-39.1h11.7v55.2H157L130.6,91h-0.9l0.8,40.9h-11.8C118.6,131.9,118.6,76.7,118.6,76.7z"
		/>
	<path d="M242.2,4.6h8.1v57.8h-8.1V4.6z"/>
	<path d="M264.8,34.2V17.1h7.2l-0.8,14.4h1.5c2.4-10.6,7.4-15.5,15.8-15.5c10,0,15.3,7.2,15.3,21.4v24.9h-8V38.1
		c0-10.2-3.2-15-9.5-15c-8.4,0-13.1,8.8-13.6,18.8v20.5h-8V34.2L264.8,34.2z"/>
	<path d="M318.5,49.3V23.7h-6.8l0.1-6.6h4.3c2.9,0,4-0.9,4.4-3.4l0.9-6.8h4.9v10.2h13v6.7h-13v25.4c0,4.6,2.2,6.6,6.3,6.6
		c2.2,0,4.6-0.4,7-2.2v8c-3.3,1.3-6.2,1.7-8.6,1.7C322.5,63.2,318.5,58.7,318.5,49.3L318.5,49.3z"/>
	<path d="M346.2,40.4c0-14.2,7.7-24.5,21.2-24.5c12,0,20,8,19.3,24.8L354,41c0.2,10.3,5.1,15.8,14.3,15.8c7.4,0,10.7-3.8,12.1-8.7
		l7,1.7c-2.2,8.4-8.5,13.6-19.2,13.6C353.8,63.4,346.2,54.3,346.2,40.4L346.2,40.4z M354.4,35.6l24.9-0.2
		c-0.5-8.6-5.3-12.8-11.8-12.8C360.5,22.7,355.7,27.4,354.4,35.6z"/>
	<path d="M398,37.8V17.1h7.2l-0.7,15.7h1.5c1.6-10.1,5.5-16.9,13.7-16.9c1.2,0,2.7,0.1,4.6,0.8l-0.4,8.3c-1.8-0.6-3.6-1-5.2-1
		c-6.9,0-10.7,7.2-12.8,16.5v21.8h-8L398,37.8L398,37.8z"/>
	<path d="M432.9,34.2V17.1h7.2l-0.8,14.4h1.5c2.4-10.6,7.4-15.5,15.8-15.5c10,0,15.3,7.2,15.3,21.4v24.9h-8V38.1
		c0-10.2-3.2-15-9.5-15c-8.4,0-13.1,8.8-13.6,18.8v20.5h-8V34.2L432.9,34.2z"/>
	<path d="M482.4,50.5c0-8.8,6-12.7,20.9-14.7c6.6-0.9,9.3-1.2,9.3-5.3c0-4.4-3-7.9-9.5-7.9c-5.2,0-11.2,2.4-12.2,9.5l-7.4-2.5
		c1.8-8.4,8.8-13.7,19.9-13.7s17.1,5.6,17.1,18V44c0,5.5,0.4,12.8,1,18.3h-7.3c-0.4-3.7-0.6-7.3-0.8-11.2h-1.1
		c-2.5,6.6-7.9,12.3-16.7,12.3C488,63.4,482.3,59.2,482.4,50.5L482.4,50.5z M512.6,45.5v-6.7c-7.4,3.3-22.4,1-22.4,11.1
		c0,4.6,3.1,7.1,7.6,7.1C502.8,57,508.9,53.8,512.6,45.5z"/>
	<path d="M535.5,49.3V23.7h-6.8l0.1-6.6h4.3c2.9,0,4-0.9,4.4-3.4l0.9-6.8h4.9v10.2h13v6.7h-13v25.4c0,4.6,2.2,6.6,6.3,6.6
		c2.2,0,4.6-0.4,7-2.2v8c-3.3,1.3-6.2,1.7-8.6,1.7C539.5,63.2,535.5,58.7,535.5,49.3L535.5,49.3z"/>
	<path d="M564.8,4.6c0-3,1.8-4.6,5.5-4.6s5.6,1.7,5.6,4.6s-1.9,4.5-5.6,4.5S564.8,7.6,564.8,4.6z M566.3,17.1h8v45.2h-8V17.1
		L566.3,17.1z"/>
	<path d="M585.7,39.5c0-15.8,9.5-23.5,21.7-23.5s22,8.3,22,23.9s-9.4,23.6-21.8,23.6S585.7,54.7,585.7,39.5L585.7,39.5z M621.4,40.1
		c0-10.7-5.3-17.4-14.2-17.4c-8.2,0-13.5,6-13.5,16.6s5.4,17.6,14.2,17.6S621.4,50.4,621.4,40.1z"/>
	<path d="M640.7,34.2V17.1h7.2l-0.8,14.4h1.5c2.4-10.6,7.3-15.5,15.8-15.5c10,0,15.3,7.2,15.3,21.4v24.9h-8V38.1
		c0-10.2-3.2-15-9.5-15c-8.4,0-13.1,8.8-13.6,18.8v20.5h-8V34.2L640.7,34.2z"/>
	<path d="M690.2,50.5c0-8.8,6-12.7,20.9-14.7c6.6-0.9,9.3-1.2,9.3-5.3c0-4.4-3-7.9-9.5-7.9c-5.2,0-11.2,2.4-12.2,9.5l-7.3-2.5
		c1.8-8.4,8.8-13.7,19.9-13.7s17.1,5.6,17.1,18V44c0,5.5,0.4,12.8,1,18.3h-7.3c-0.4-3.7-0.6-7.3-0.8-11.2H720
		c-2.5,6.6-7.9,12.3-16.7,12.3C695.8,63.4,690.1,59.2,690.2,50.5L690.2,50.5z M720.4,45.5v-6.7c-7.3,3.3-22.4,1-22.4,11.1
		c0,4.6,3.2,7.1,7.6,7.1C710.6,57,716.7,53.8,720.4,45.5L720.4,45.5z"/>
	<path d="M741.6,1h8v61.2h-8V1z"/>
	<path d="M242.2,71.1H261c19.5,0,28.2,10.7,28.2,28.4c0,19.6-11.2,29.3-25.4,29.3h-21.6L242.2,71.1L242.2,71.1z M250.2,78v43.9h13.3
		c11.8,0,17.4-8.9,17.4-21.8c0-15.1-6.2-22.1-19.8-22.1L250.2,78L250.2,78z"/>
	<path d="M299,106.9c0-14.2,7.7-24.5,21.2-24.5c12,0,20,8.1,19.3,24.8l-32.7,0.3c0.2,10.3,5.1,15.8,14.3,15.8
		c7.4,0,10.7-3.8,12.1-8.7l7,1.7c-2.2,8.4-8.5,13.6-19.2,13.6C306.7,129.9,299.1,120.8,299,106.9L299,106.9z M307.2,102.1l24.9-0.2
		c-0.5-8.6-5.3-12.8-11.8-12.8C313.3,89.2,308.5,93.9,307.2,102.1z"/>
	<path d="M347,134.1c0-5.3,4.1-8.9,12.7-10.2v-1.6c-6.3,0.1-9.4-1.5-9.4-4.6s3-5.2,10.1-7v-1.7c-7.1-0.1-10.9-4.6-10.9-11.3
		c0-9,7.5-14.6,20.4-14.6h21.4V90l-14-2.2v1.7c6.7,1.4,10.5,4.6,10.5,10.2c0,7.5-6.7,12.4-19.1,12.4c-1.7,0-3.1-0.1-6.1-0.6
		c-3.2,2-5.2,3.6-5.2,4.9c0,2,4.8,2.4,8.2,2.4h10.2c4.6,0,16.1,0.8,16.1,11.9c0,9.5-8.7,13.3-24.1,13.3
		C353.4,144.1,347,140.9,347,134.1L347,134.1z M384.5,130.5c0-6.1-7.4-6.1-10.6-6.1h-10.2c-6.7,1.6-8.9,4.4-8.9,7.4
		c0,4.9,5.9,5.8,13.2,5.8C379.6,137.6,384.5,135.4,384.5,130.5z M380.1,98.6c0-5.5-3.9-9.4-11.4-9.4s-11.4,3.7-11.4,9.1
		s4,8.8,11.6,8.8S380.1,103.8,380.1,98.6L380.1,98.6z"/>
	<path d="M401.8,104.3V83.6h7.2l-0.7,15.8h1.5c1.6-10.2,5.5-16.9,13.7-16.9c1.2,0,2.7,0.1,4.6,0.8l-0.4,8.3c-1.8-0.6-3.6-1-5.2-1
		c-6.9,0-10.7,7.2-12.8,16.4v21.8h-8L401.8,104.3L401.8,104.3z"/>
	<path d="M433.4,106c0-15.8,9.5-23.5,21.7-23.5s22,8.3,22,23.9s-9.4,23.6-21.8,23.6S433.4,121.2,433.4,106z M469.1,106.6
		c0-10.7-5.3-17.4-14.2-17.4c-8.2,0-13.5,6-13.5,16.6s5.4,17.6,14.2,17.6S469.1,116.9,469.1,106.6L469.1,106.6z"/>
	<path d="M483.4,83.6h8.2l8.9,38.5h1.4l9.5-38.5h10.3l9.6,38.5h1.3l8.9-38.5h8.1l-12.2,45.2h-11.2l-9.4-38.4h-1l-9.4,38.4h-11.3
		L483.4,83.6L483.4,83.6z"/>
	<path d="M562.8,115.8V90.2h-6.8l0.1-6.7h4.3c2.9,0,4-0.9,4.4-3.4l0.9-6.8h4.9v10.2h13v6.7h-13v25.4c0,4.6,2.2,6.6,6.3,6.6
		c2.2,0,4.6-0.4,7-2.2v8c-3.3,1.3-6.2,1.7-8.6,1.7C566.8,129.6,562.8,125.2,562.8,115.8L562.8,115.8z"/>
	<path d="M593.5,101.3V67.6h8.2v14.1c0,5.1-0.7,10.6-1.6,16.1h1.5c2.5-10.2,7.2-15.3,15.6-15.3c10.2,0,15.3,7.2,15.3,21.4v24.9h-8
		v-24.2c0-10.6-3.3-15.1-9.6-15.1c-8.1,0-12.2,7.7-13.4,17.9v21.3h-8L593.5,101.3L593.5,101.3z"/>
	<path d="M242.2,137.5h10.7l30.4,47.2h0.7l-0.6-47.2h7.8v57.8h-9.7l-31.2-48.2h-0.8l0.6,48.2h-7.9L242.2,137.5L242.2,137.5z"/>
	<path d="M303.2,173.4c0-14.2,7.7-24.5,21.2-24.5c12,0,20,8.1,19.3,24.9L311,174c0.2,10.3,5.1,15.8,14.3,15.8
		c7.4,0,10.7-3.8,12.1-8.7l7,1.7c-2.2,8.4-8.5,13.6-19.2,13.6C310.8,196.4,303.2,187.3,303.2,173.4L303.2,173.4z M311.3,168.6
		l24.9-0.2c-0.5-8.6-5.3-12.8-11.8-12.8C317.4,155.7,312.6,160.4,311.3,168.6z"/>
	<path d="M356.6,182.3v-25.6h-6.8l0.1-6.6h4.3c2.9,0,4-0.9,4.4-3.4l0.9-6.8h4.9v10.2h13v6.7h-13v25.4c0,4.6,2.2,6.6,6.3,6.6
		c2.2,0,4.6-0.4,7-2.2v8c-3.3,1.3-6.2,1.7-8.6,1.7C360.6,196.2,356.6,191.7,356.6,182.3L356.6,182.3z"/>
	<path d="M383.5,150.1h8.2l8.9,38.5h1.4l9.5-38.5h10.3l9.6,38.5h1.3l8.9-38.5h8.1l-12.2,45.2h-11.2l-9.4-38.4h-1l-9.4,38.4h-11.3
		L383.5,150.1L383.5,150.1z"/>
	<path d="M456.2,172.4c0-15.8,9.5-23.5,21.7-23.5s22,8.3,22,23.9s-9.4,23.6-21.8,23.6S456.2,187.7,456.2,172.4z M491.9,173.1
		c0-10.7-5.3-17.4-14.2-17.4c-8.2,0-13.5,6-13.5,16.6s5.4,17.6,14.2,17.6S491.9,183.4,491.9,173.1L491.9,173.1z"/>
	<path d="M511.2,170.8V150h7.2l-0.7,15.8h1.5c1.6-10.1,5.5-16.9,13.7-16.9c1.2,0,2.7,0.1,4.6,0.8l-0.4,8.3c-1.8-0.6-3.6-1-5.2-1
		c-6.9,0-10.7,7.2-12.8,16.4v21.8h-8L511.2,170.8L511.2,170.8z"/>
	<path d="M546.1,133.9h8v35c9.1-4.8,17.3-13.5,20.1-18.9h9.4c-4.5,8.8-14.2,18.1-23.6,20.4v1.1c11.7-0.9,17.2,8.3,22.6,18.2l2.7,5.6
		h-9l-1.9-4c-4.7-9-9.3-15.9-17.9-15.9h-2.3v19.9h-8L546.1,133.9L546.1,133.9z"/>
</g>
</svg>
